<?xml version="1.0" encoding="UTF-8" standalone="no"?>
<!DOCTYPE svg PUBLIC "-//W3C//DTD SVG 1.1//EN"
 "http://www.w3.org/Graphics/SVG/1.1/DTD/svg11.dtd">
<!-- Generated by graphviz version 2.43.0 (0)
 -->
<!-- Title: connection_side Pages: 1 -->
<svg width="1956pt" height="461pt"
 viewBox="0.00 0.00 1955.60 460.60" xmlns="http://www.w3.org/2000/svg" xmlns:xlink="http://www.w3.org/1999/xlink">
<g id="graph0" class="graph" transform="scale(1 1) rotate(0) translate(28.8 431.8)">
<title>connection_side</title>
<polygon fill="#ffffff" stroke="transparent" points="-28.8,28.8 -28.8,-431.8 1926.8,-431.8 1926.8,28.8 -28.8,28.8"/>
<text text-anchor="middle" x="269.5" y="-383" font-family="Helvetica,sans-Serif" font-size="20.00">CONNECTION SIDE — pairing, transport and security</text>
<g id="clust1" class="cluster">
<title>cluster_transport</title>
<path fill="#ecfeff" stroke="#67e8f9" stroke-width="2" d="M1056,-105C1056,-105 1347,-105 1347,-105 1353,-105 1359,-111 1359,-117 1359,-117 1359,-292 1359,-292 1359,-298 1353,-304 1347,-304 1347,-304 1056,-304 1056,-304 1050,-304 1044,-298 1044,-292 1044,-292 1044,-117 1044,-117 1044,-111 1050,-105 1056,-105"/>
<text text-anchor="middle" x="1195.5" y="-288" font-family="Helvetica,sans-Serif" font-size="15.00" fill="#0e7490">Transport channels (all authenticated)</text>
</g>
<g id="clust2" class="cluster">
<title>cluster_net</title>
<path fill="#f8fafc" stroke="#94a3b8" stroke-width="2" d="M1138,-8C1138,-8 1878,-8 1878,-8 1884,-8 1890,-14 1890,-20 1890,-20 1890,-85 1890,-85 1890,-91 1884,-97 1878,-97 1878,-97 1138,-97 1138,-97 1132,-97 1126,-91 1126,-85 1126,-85 1126,-20 1126,-20 1126,-14 1132,-8 1138,-8"/>
<text text-anchor="middle" x="1195.5" y="-81" font-family="Helvetica,sans-Serif" font-size="15.00" fill="#334155">Network options</text>
</g>
<g id="clust3" class="cluster">
<title>cluster_sec</title>
<path fill="#fff1f2" stroke="#fda4af" stroke-width="2" d="M1437,-105C1437,-105 1645,-105 1645,-105 1651,-105 1657,-111 1657,-117 1657,-117 1657,-353 1657,-353 1657,-359 1651,-365 1645,-365 1645,-365 1437,-365 1437,-365 1431,-365 1425,-359 1425,-353 1425,-353 1425,-117 1425,-117 1425,-111 1431,-105 1437,-105"/>
<text text-anchor="middle" x="1490" y="-349" font-family="Helvetica,sans-Serif" font-size="15.00" fill="#9f1239">Security model</text>
</g>
<!-- pair -->
<g id="node1" class="node">
<title>pair</title>
<path fill="#fde68a" stroke="#fcd34d" stroke-width="1.1" d="M179,-240C179,-240 12,-240 12,-240 6,-240 0,-234 0,-228 0,-228 0,-216 0,-216 0,-210 6,-204 12,-204 12,-204 179,-204 179,-204 185,-204 191,-210 191,-216 191,-216 191,-228 191,-228 191,-234 185,-240 179,-240"/>
<text text-anchor="middle" x="95.5" y="-225.4" font-family="Helvetica,sans-Serif" font-size="12.00" fill="#78350f">1 · PC prints pair URL</text>
<text text-anchor="middle" x="95.5" y="-212.4" font-family="Helvetica,sans-Serif" font-size="12.00" fill="#78350f">http://10.121.251.1:8787/pair</text>
</g>
<!-- qr -->
<g id="node2" class="node">
<title>qr</title>
<path fill="#fde68a" stroke="#fcd34d" stroke-width="1.1" d="M442,-240C442,-240 254,-240 254,-240 248,-240 242,-234 242,-228 242,-228 242,-216 242,-216 242,-210 248,-204 254,-204 254,-204 442,-204 442,-204 448,-204 454,-210 454,-216 454,-216 454,-228 454,-228 454,-234 448,-240 442,-240"/>
<text text-anchor="middle" x="348" y="-225.4" font-family="Helvetica,sans-Serif" font-size="12.00" fill="#78350f">2 · pair page shows QR</text>
<text text-anchor="middle" x="348" y="-212.4" font-family="Helvetica,sans-Serif" font-size="12.00" fill="#78350f">encoded URL &#160;…/?token=live123</text>
</g>
<!-- pair&#45;&gt;qr -->
<g id="edge1" class="edge">
<title>pair&#45;&gt;qr</title>
<path fill="none" stroke="#92400e" stroke-width="1.3" d="M191.2,-222C204.34,-222 217.96,-222 231.42,-222"/>
<polygon fill="#92400e" stroke="#92400e" stroke-width="1.3" points="231.68,-225.5 241.68,-222 231.68,-218.5 231.68,-225.5"/>
</g>
<!-- scan -->
<g id="node3" class="node">
<title>scan</title>
<path fill="#fde68a" stroke="#fcd34d" stroke-width="1.1" d="M675,-240C675,-240 517,-240 517,-240 511,-240 505,-234 505,-228 505,-228 505,-216 505,-216 505,-210 511,-204 517,-204 517,-204 675,-204 675,-204 681,-204 687,-210 687,-216 687,-216 687,-228 687,-228 687,-234 681,-240 675,-240"/>
<text text-anchor="middle" x="596" y="-225.4" font-family="Helvetica,sans-Serif" font-size="12.00" fill="#78350f">3 · phone camera scans QR</text>
<text text-anchor="middle" x="596" y="-212.4" font-family="Helvetica,sans-Serif" font-size="12.00" fill="#78350f">or opens the pair link</text>
</g>
<!-- qr&#45;&gt;scan -->
<g id="edge2" class="edge">
<title>qr&#45;&gt;scan</title>
<path fill="none" stroke="#92400e" stroke-width="1.3" d="M454.04,-222C467.46,-222 481.18,-222 494.53,-222"/>
<polygon fill="#92400e" stroke="#92400e" stroke-width="1.3" points="494.66,-225.5 504.66,-222 494.66,-218.5 494.66,-225.5"/>
</g>
<!-- tok -->
<g id="node4" class="node">
<title>tok</title>
<path fill="#fde68a" stroke="#fcd34d" stroke-width="1.1" d="M899,-240C899,-240 750,-240 750,-240 744,-240 738,-234 738,-228 738,-228 738,-216 738,-216 738,-210 744,-204 750,-204 750,-204 899,-204 899,-204 905,-204 911,-210 911,-216 911,-216 911,-228 911,-228 911,-234 905,-240 899,-240"/>
<text text-anchor="middle" x="824.5" y="-225.4" font-family="Helvetica,sans-Serif" font-size="12.00" fill="#78350f">4 · token arrives on phone</text>
<text text-anchor="middle" x="824.5" y="-212.4" font-family="Helvetica,sans-Serif" font-size="12.00" fill="#78350f">pre&#45;filled in the login box</text>
</g>
<!-- scan&#45;&gt;tok -->
<g id="edge3" class="edge">
<title>scan&#45;&gt;tok</title>
<path fill="none" stroke="#92400e" stroke-width="1.3" d="M687.17,-222C700.44,-222 714.15,-222 727.54,-222"/>
<polygon fill="#92400e" stroke="#92400e" stroke-width="1.3" points="727.69,-225.5 737.69,-222 727.69,-218.5 727.69,-225.5"/>
</g>
<!-- t_sse -->
<g id="node5" class="node">
<title>t_sse</title>
<path fill="#cffafe" stroke="#fcd34d" stroke-width="1.1" d="M1334,-271C1334,-271 1069,-271 1069,-271 1063,-271 1057,-265 1057,-259 1057,-259 1057,-247 1057,-247 1057,-241 1063,-235 1069,-235 1069,-235 1334,-235 1334,-235 1340,-235 1346,-241 1346,-247 1346,-247 1346,-259 1346,-259 1346,-265 1340,-271 1334,-271"/>
<text text-anchor="middle" x="1201.5" y="-256.4" font-family="Helvetica,sans-Serif" font-size="12.00" fill="#78350f">EventSource (SSE) /api/events</text>
<text text-anchor="middle" x="1201.5" y="-243.4" font-family="Helvetica,sans-Serif" font-size="12.00" fill="#78350f">server→phone · live feed · replays since lastId</text>
</g>
<!-- tok&#45;&gt;t_sse -->
<g id="edge4" class="edge">
<title>tok&#45;&gt;t_sse</title>
<path fill="none" stroke="#0891b2" stroke-width="1.3" d="M911.06,-229.07C951.24,-232.39 1000.39,-236.46 1046.7,-240.29"/>
<polygon fill="#0891b2" stroke="#0891b2" stroke-width="1.3" points="1046.59,-243.79 1056.85,-241.12 1047.17,-236.81 1046.59,-243.79"/>
<text text-anchor="middle" x="981.5" y="-241.2" font-family="Helvetica,sans-Serif" font-size="11.00">token + ?since=</text>
</g>
<!-- t_http -->
<g id="node6" class="node">
<title>t_http</title>
<path fill="#cffafe" stroke="#fcd34d" stroke-width="1.1" d="M1339,-210C1339,-210 1064,-210 1064,-210 1058,-210 1052,-204 1052,-198 1052,-198 1052,-186 1052,-186 1052,-180 1058,-174 1064,-174 1064,-174 1339,-174 1339,-174 1345,-174 1351,-180 1351,-186 1351,-186 1351,-198 1351,-198 1351,-204 1345,-210 1339,-210"/>
<text text-anchor="middle" x="1201.5" y="-195.4" font-family="Helvetica,sans-Serif" font-size="12.00" fill="#78350f">HTTP POST/PUT</text>
<text text-anchor="middle" x="1201.5" y="-182.4" font-family="Helvetica,sans-Serif" font-size="12.00" fill="#78350f">phone→server · prompt · approve · abort · skills</text>
</g>
<!-- tok&#45;&gt;t_http -->
<g id="edge5" class="edge">
<title>tok&#45;&gt;t_http</title>
<path fill="none" stroke="#0891b2" stroke-width="1.3" d="M911.05,-207.94C919.47,-206.83 927.89,-205.82 936,-205 970.03,-201.55 1006.63,-199.01 1041.42,-197.14"/>
<polygon fill="#0891b2" stroke="#0891b2" stroke-width="1.3" points="1041.86,-200.63 1051.67,-196.61 1041.5,-193.63 1041.86,-200.63"/>
<text text-anchor="middle" x="981.5" y="-208.2" font-family="Helvetica,sans-Serif" font-size="11.00">token header</text>
</g>
<!-- n_tail -->
<g id="node9" class="node">
<title>n_tail</title>
<path fill="#e2e8f0" stroke="#fcd34d" stroke-width="1.1" d="M1611,-63.5C1611,-63.5 1471,-63.5 1471,-63.5 1465,-63.5 1459,-57.5 1459,-51.5 1459,-51.5 1459,-28.5 1459,-28.5 1459,-22.5 1465,-16.5 1471,-16.5 1471,-16.5 1611,-16.5 1611,-16.5 1617,-16.5 1623,-22.5 1623,-28.5 1623,-28.5 1623,-51.5 1623,-51.5 1623,-57.5 1617,-63.5 1611,-63.5"/>
<text text-anchor="middle" x="1541" y="-49.9" font-family="Helvetica,sans-Serif" font-size="12.00" fill="#0f172a">Tailscale tailnet</text>
<text text-anchor="middle" x="1541" y="-36.9" font-family="Helvetica,sans-Serif" font-size="12.00" fill="#0f172a">auto&#45;detected *.ts.net IP</text>
<text text-anchor="middle" x="1541" y="-23.9" font-family="Helvetica,sans-Serif" font-size="12.00" fill="#0f172a">no port forwarding</text>
</g>
<!-- t_sse&#45;&gt;n_tail -->
<g id="edge6" class="edge">
<title>t_sse&#45;&gt;n_tail</title>
<path fill="none" stroke="#94a3b8" stroke-width="1.3" stroke-dasharray="1,5" d="M1336.45,-234.96C1344.36,-231.59 1351.95,-227.63 1359,-223 1391.35,-201.74 1390.93,-185.74 1408,-151 1418.72,-129.18 1409.22,-117.5 1425,-99 1435.55,-86.63 1449.35,-76.54 1463.7,-68.42"/>
<polygon fill="#94a3b8" stroke="#94a3b8" stroke-width="1.3" points="1465.51,-71.42 1472.68,-63.62 1462.21,-65.25 1465.51,-71.42"/>
</g>
<!-- s_tok -->
<g id="node11" class="node">
<title>s_tok</title>
<path fill="#fecdd3" stroke="#fcd34d" stroke-width="1.1" d="M1611,-332C1611,-332 1471,-332 1471,-332 1465,-332 1459,-326 1459,-320 1459,-320 1459,-308 1459,-308 1459,-302 1465,-296 1471,-296 1471,-296 1611,-296 1611,-296 1617,-296 1623,-302 1623,-308 1623,-308 1623,-320 1623,-320 1623,-326 1617,-332 1611,-332"/>
<text text-anchor="middle" x="1541" y="-317.4" font-family="Helvetica,sans-Serif" font-size="12.00" fill="#78350f">bearer token</text>
<text text-anchor="middle" x="1541" y="-304.4" font-family="Helvetica,sans-Serif" font-size="12.00" fill="#78350f">(tied to one PC + phone)</text>
</g>
<!-- t_sse&#45;&gt;s_tok -->
<g id="edge10" class="edge">
<title>t_sse&#45;&gt;s_tok</title>
<path fill="none" stroke="#92400e" stroke-width="1.3" stroke-dasharray="1,5" d="M1302.39,-271.05C1348.74,-279.43 1403.46,-289.32 1448.7,-297.5"/>
<polygon fill="#92400e" stroke="#92400e" stroke-width="1.3" points="1448.33,-300.99 1458.79,-299.32 1449.57,-294.1 1448.33,-300.99"/>
</g>
<!-- t_http&#45;&gt;n_tail -->
<g id="edge7" class="edge">
<title>t_http&#45;&gt;n_tail</title>
<path fill="none" stroke="#94a3b8" stroke-width="1.3" stroke-dasharray="1,5" d="M1327.28,-173.99C1338.29,-170.41 1349.02,-166.13 1359,-161 1394.79,-142.6 1392.11,-122.19 1425,-99 1441.16,-87.6 1459.83,-77.06 1477.36,-68.14"/>
<polygon fill="#94a3b8" stroke="#94a3b8" stroke-width="1.3" points="1479.02,-71.22 1486.4,-63.62 1475.89,-64.96 1479.02,-71.22"/>
</g>
<!-- s_pin -->
<g id="node12" class="node">
<title>s_pin</title>
<path fill="#fecdd3" stroke="#fcd34d" stroke-width="1.1" d="M1573.5,-271C1573.5,-271 1508.5,-271 1508.5,-271 1502.5,-271 1496.5,-265 1496.5,-259 1496.5,-259 1496.5,-247 1496.5,-247 1496.5,-241 1502.5,-235 1508.5,-235 1508.5,-235 1573.5,-235 1573.5,-235 1579.5,-235 1585.5,-241 1585.5,-247 1585.5,-247 1585.5,-259 1585.5,-259 1585.5,-265 1579.5,-271 1573.5,-271"/>
<text text-anchor="middle" x="1541" y="-256.4" font-family="Helvetica,sans-Serif" font-size="12.00" fill="#78350f">optional PIN</text>
<text text-anchor="middle" x="1541" y="-243.4" font-family="Helvetica,sans-Serif" font-size="12.00" fill="#78350f">2nd factor</text>
</g>
<!-- t_http&#45;&gt;s_pin -->
<g id="edge11" class="edge">
<title>t_http&#45;&gt;s_pin</title>
<path fill="none" stroke="#92400e" stroke-width="1.3" stroke-dasharray="1,5" d="M1302.39,-210.05C1362.64,-220.94 1437.02,-234.39 1486.34,-243.3"/>
<polygon fill="#92400e" stroke="#92400e" stroke-width="1.3" points="1486.01,-246.8 1496.47,-245.13 1487.26,-239.91 1486.01,-246.8"/>
</g>
<!-- s_allow -->
<g id="node14" class="node">
<title>s_allow</title>
<path fill="#fecdd3" stroke="#fcd34d" stroke-width="1.1" d="M1637,-210C1637,-210 1445,-210 1445,-210 1439,-210 1433,-204 1433,-198 1433,-198 1433,-186 1433,-186 1433,-180 1439,-174 1445,-174 1445,-174 1637,-174 1637,-174 1643,-174 1649,-180 1649,-186 1649,-186 1649,-198 1649,-198 1649,-204 1643,-210 1637,-210"/>
<text text-anchor="middle" x="1541" y="-195.4" font-family="Helvetica,sans-Serif" font-size="12.00" fill="#78350f">allowlist</text>
<text text-anchor="middle" x="1541" y="-182.4" font-family="Helvetica,sans-Serif" font-size="12.00" fill="#78350f">prompts + skills OK · raw shell off</text>
</g>
<!-- t_http&#45;&gt;s_allow -->
<g id="edge13" class="edge">
<title>t_http&#45;&gt;s_allow</title>
<path fill="none" stroke="#92400e" stroke-width="1.3" stroke-dasharray="1,5" d="M1351.02,-192C1375.06,-192 1399.64,-192 1422.8,-192"/>
<polygon fill="#92400e" stroke="#92400e" stroke-width="1.3" points="1422.98,-195.5 1432.98,-192 1422.98,-188.5 1422.98,-195.5"/>
</g>
<!-- t_ws -->
<g id="node7" class="node">
<title>t_ws</title>
<path fill="#cffafe" stroke="#fcd34d" stroke-width="1.1" d="M1306,-149C1306,-149 1097,-149 1097,-149 1091,-149 1085,-143 1085,-137 1085,-137 1085,-125 1085,-125 1085,-119 1091,-113 1097,-113 1097,-113 1306,-113 1306,-113 1312,-113 1318,-119 1318,-125 1318,-125 1318,-137 1318,-137 1318,-143 1312,-149 1306,-149"/>
<text text-anchor="middle" x="1201.5" y="-134.4" font-family="Helvetica,sans-Serif" font-size="12.00" fill="#78350f">WebSocket</text>
<text text-anchor="middle" x="1201.5" y="-121.4" font-family="Helvetica,sans-Serif" font-size="12.00" fill="#78350f">screenshots · streaming (extensible)</text>
</g>
<!-- s_ses -->
<g id="node13" class="node">
<title>s_ses</title>
<path fill="#fecdd3" stroke="#fcd34d" stroke-width="1.1" d="M1630.5,-149C1630.5,-149 1451.5,-149 1451.5,-149 1445.5,-149 1439.5,-143 1439.5,-137 1439.5,-137 1439.5,-125 1439.5,-125 1439.5,-119 1445.5,-113 1451.5,-113 1451.5,-113 1630.5,-113 1630.5,-113 1636.5,-113 1642.5,-119 1642.5,-125 1642.5,-125 1642.5,-137 1642.5,-137 1642.5,-143 1636.5,-149 1630.5,-149"/>
<text text-anchor="middle" x="1541" y="-134.4" font-family="Helvetica,sans-Serif" font-size="12.00" fill="#78350f">session scoping</text>
<text text-anchor="middle" x="1541" y="-121.4" font-family="Helvetica,sans-Serif" font-size="12.00" fill="#78350f">phone sees only its PC&#39;s agents</text>
</g>
<!-- t_ws&#45;&gt;s_ses -->
<g id="edge12" class="edge">
<title>t_ws&#45;&gt;s_ses</title>
<path fill="none" stroke="#92400e" stroke-width="1.3" stroke-dasharray="1,5" d="M1318.18,-131C1354.04,-131 1393.46,-131 1429,-131"/>
<polygon fill="#92400e" stroke="#92400e" stroke-width="1.3" points="1429.41,-134.5 1439.41,-131 1429.41,-127.5 1429.41,-134.5"/>
</g>
<!-- n_local -->
<g id="node8" class="node">
<title>n_local</title>
<path fill="#e2e8f0" stroke="#fcd34d" stroke-width="1.1" d="M1257,-59C1257,-59 1146,-59 1146,-59 1140,-59 1134,-53 1134,-47 1134,-47 1134,-35 1134,-35 1134,-29 1140,-23 1146,-23 1146,-23 1257,-23 1257,-23 1263,-23 1269,-29 1269,-35 1269,-35 1269,-47 1269,-47 1269,-53 1263,-59 1257,-59"/>
<text text-anchor="middle" x="1201.5" y="-44.4" font-family="Helvetica,sans-Serif" font-size="12.00" fill="#0f172a">localhost only</text>
<text text-anchor="middle" x="1201.5" y="-31.4" font-family="Helvetica,sans-Serif" font-size="12.00" fill="#0f172a">(127.0.0.1 · default)</text>
</g>
<!-- n_local&#45;&gt;n_tail -->
<g id="edge8" class="edge">
<title>n_local&#45;&gt;n_tail</title>
<path fill="none" stroke="#92400e" stroke-width="1.3" stroke-dasharray="5,2" d="M1269.18,-40.8C1323.64,-40.64 1400.82,-40.41 1458.87,-40.24"/>
<text text-anchor="middle" x="1392" y="-44.2" font-family="Helvetica,sans-Serif" font-size="11.00">opt&#45;in</text>
</g>
<!-- n_lan -->
<g id="node10" class="node">
<title>n_lan</title>
<path fill="#e2e8f0" stroke="#fcd34d" stroke-width="1.1" d="M1870,-63.5C1870,-63.5 1723,-63.5 1723,-63.5 1717,-63.5 1711,-57.5 1711,-51.5 1711,-51.5 1711,-28.5 1711,-28.5 1711,-22.5 1717,-16.5 1723,-16.5 1723,-16.5 1870,-16.5 1870,-16.5 1876,-16.5 1882,-22.5 1882,-28.5 1882,-28.5 1882,-51.5 1882,-51.5 1882,-57.5 1876,-63.5 1870,-63.5"/>
<text text-anchor="middle" x="1796.5" y="-49.9" font-family="Helvetica,sans-Serif" font-size="12.00" fill="#0f172a">plain LAN</text>
<text text-anchor="middle" x="1796.5" y="-36.9" font-family="Helvetica,sans-Serif" font-size="12.00" fill="#0f172a">host 0.0.0.0</text>
<text text-anchor="middle" x="1796.5" y="-23.9" font-family="Helvetica,sans-Serif" font-size="12.00" fill="#0f172a">(what the live demo uses)</text>
</g>
<!-- n_tail&#45;&gt;n_lan -->
<g id="edge9" class="edge">
<title>n_tail&#45;&gt;n_lan</title>
<path fill="none" stroke="#92400e" stroke-width="1.3" stroke-dasharray="5,2" d="M1623.25,-40C1651.21,-40 1682.56,-40 1710.78,-40"/>
<text text-anchor="middle" x="1680" y="-43.2" font-family="Helvetica,sans-Serif" font-size="11.00">or</text>
</g>
</g>
</svg>
